# xmcd
#
# Track frame offsets:
#	150
#	17609
#	35373
#	50842
#	72030
#	86473
#	104167
#	120600
#	135680
#	148509
#	165297
#	180670
#
# Disc length: 2664 seconds
#
# Revision: 1
# Processed by: cddbd v1.5.2PL0 Copyright (c) Steve Scherf et al.
# Submitted via: audiograbber 1.83.01
#
DISCID=9f0a660c
DTITLE=Juha Tapio - Ohikiit‰v‰‰
DYEAR=2005
DGENRE=Pop
TTITLE0=Pid‰ Kii
TTITLE1=Arvaamatta Tuuli K‰‰ntyy Vastaan
TTITLE2=Ihme
TTITLE3=Ohikiit‰v‰‰
TTITLE4=Onnen T‰hdet
TTITLE5=Rakkaus Selvi‰‰
TTITLE6=K‰mmentesi Ihoon
TTITLE7=Vaari
TTITLE8=Kirkkain Silmin
TTITLE9=P‰ivin Sek‰ ÷in
TTITLE10=Kuinka Paljon
TTITLE11=Tummenevan Taivaan Alla (Studio Live)
EXTD=TR.
EXTT0=
EXTT1=
EXTT2=
EXTT3=
EXTT4=
EXTT5=
EXTT6=
EXTT7=
EXTT8=
EXTT9=
EXTT10=
EXTT11=
PLAYORDER=
